<svg xmlns="http://www.w3.org/2000/svg" viewBox="0 0 77.5 119.27"><defs><style>.cls-1{fill:#fff;}.cls-2{fill:none;stroke:#000;stroke-miterlimit:10;}.cls-3{fill:#191919;}</style></defs><title>Asset 6</title><g id="Layer_2" data-name="Layer 2"><g id="Layer_1-2" data-name="Layer 1"><path d="M0,91.27v28H69.3c0-9.25-2.66-23.25-13.3-28Z"/><polygon class="cls-1" points="56.94 46.27 74 70.27 56 70.27 56 91.27 0 91.27 0 46.27 56.94 46.27"/><polygon points="56 42.27 55.98 0 0 0 0 43 0 46.27 56 46.27 70 46.27 70 42.27 56 42.27"/><path d="M73,73.27c2-2,5,3-1,3-4,0-17.5-12.5-24-6-6.5-6.5-20,6-24,6-6,0-3-5-1-3,1-2-9,0-2,5s21,4,27-2c6,6,20,7,27,2S72,71.27,73,73.27Z"/><circle class="cls-2" cx="17.5" cy="58.77" r="8"/><circle class="cls-3" cx="9" cy="63.27" r="0.75"/><circle class="cls-3" cx="9" cy="65.27" r="0.75"/><circle class="cls-3" cx="9" cy="67.27" r="0.75"/><circle class="cls-3" cx="9" cy="69.27" r="0.75"/><circle class="cls-3" cx="9" cy="71.27" r="0.75"/><circle class="cls-3" cx="9" cy="73.27" r="0.75"/><circle class="cls-3" cx="9" cy="75.27" r="0.75"/><circle class="cls-3" cx="9" cy="77.27" r="0.75"/><circle class="cls-3" cx="9" cy="79.27" r="0.75"/><circle class="cls-3" cx="9" cy="81.27" r="0.75"/><circle class="cls-3" cx="9" cy="83.27" r="0.75"/><circle class="cls-3" cx="9" cy="85.27" r="0.75"/><circle class="cls-3" cx="9" cy="87.27" r="0.75"/><circle class="cls-3" cx="9" cy="89.27" r="0.75"/><circle class="cls-3" cx="9" cy="91.27" r="0.75"/><circle class="cls-3" cx="9" cy="93.27" r="0.75"/><circle class="cls-3" cx="9" cy="95.27" r="0.75"/><circle class="cls-3" cx="9" cy="97.27" r="0.75"/><circle class="cls-3" cx="9" cy="99.27" r="0.75"/><circle class="cls-3" cx="9" cy="101.27" r="0.75"/><circle class="cls-3" cx="9" cy="103.27" r="0.75"/><circle class="cls-3" cx="9" cy="105.27" r="0.75"/><circle class="cls-3" cx="9" cy="107.27" r="0.75"/><circle class="cls-3" cx="9" cy="109.27" r="0.75"/><circle class="cls-3" cx="9" cy="111.27" r="0.75"/><circle class="cls-3" cx="9" cy="113.27" r="0.75"/><circle class="cls-3" cx="9" cy="115.27" r="0.75"/><circle class="cls-3" cx="9" cy="117.27" r="0.75"/><path d="M19.23,58.73a2.2,2.2,0,0,1,0,.44l-1.05.35,1.08,0a3.34,3.34,0,0,1-.31,1.39,1.24,1.24,0,0,1-1,.39,1.22,1.22,0,0,1-1-.5,4.32,4.32,0,0,1-.28-2.05c0-1.41.29-2.56,1.28-2.56S19.23,57.32,19.23,58.73Z"/><path d="M56.34,58.73a2.22,2.22,0,0,1,0,.44l-1.05.35,1.08,0A3.34,3.34,0,0,1,56,60.89a1.24,1.24,0,0,1-1,.39,1.22,1.22,0,0,1-1-.5,4.32,4.32,0,0,1-.28-2.05c0-1.41.29-2.56,1.28-2.56S56.34,57.32,56.34,58.73Z"/></g></g></svg>